<svg width="60" height="60" viewBox="0 0 60 60" fill="none" xmlns="http://www.w3.org/2000/svg">
<path d="M24 2.3999C23.592 2.3999 23.2084 2.61675 22.9804 2.96475C12.1924 20.0407 5.12341 51.2151 4.82341 52.5351C4.75141 52.8591 4.82388 53.1968 5.00388 53.4608L7.40388 57.0608C7.45188 57.1448 7.52407 57.2282 7.59607 57.2882C9.19207 51.8522 16.3804 28.8967 28.9804 8.96475C29.2084 8.61675 29.592 8.3999 30 8.3999C30.408 8.3999 30.7915 8.61675 31.0195 8.96475C34.0195 13.7167 36.9478 19.0086 39.7078 24.6726C39.9958 25.2726 39.7567 25.9924 39.1687 26.2804L17.3648 37.0569C17.1248 37.6329 16.8967 38.2086 16.6687 38.7726C20.7967 37.4406 29.5799 34.8358 42.2039 32.3038C42.7559 32.1958 43.3071 32.4956 43.5351 33.0116C48.4671 44.3996 51.4436 54.0005 52.4156 57.2765C52.4276 57.2765 52.4411 57.265 52.4531 57.253L54.8531 54.853C55.1411 54.565 55.2605 54.1428 55.1765 53.7468C54.8765 52.3788 47.8075 20.0407 37.0195 2.96475C36.7915 2.61675 36.408 2.3999 36 2.3999H24ZM30 11.8687C25.548 19.1527 21.8159 26.7486 18.8039 33.6726L24.3351 30.9351C26.0391 27.0591 27.936 23.0759 30 19.1999C31.26 21.5639 32.4485 23.9647 33.5765 26.3647L37.0312 24.6608C34.7752 20.1128 32.412 15.8167 30 11.8687ZM41.7117 34.8608C27.1437 37.8248 17.9756 40.8245 15.5156 41.6765C15.1796 42.5165 14.8804 43.3313 14.5804 44.1233C20.6884 43.0913 38.2445 40.619 43.7765 39.839C43.1405 38.231 42.4557 36.5648 41.7117 34.8608ZM44.6765 42.1429C43.7885 42.2629 42.3962 42.456 40.6922 42.696C43.3322 49.704 45.2036 55.6675 46.1156 58.7155L50.1117 57.9233C49.3917 55.5233 47.5805 49.6309 44.6765 42.1429ZM38.7351 44.3155C39.5871 50.3635 39.6 55.1519 39.6 55.1999C39.6 55.6559 39.8529 56.0766 40.2609 56.2687L43.3312 57.8038C42.3712 54.6958 40.7991 49.8715 38.7351 44.3155ZM21.4429 45.4804C21.2269 45.5164 21.0118 45.5405 20.8078 45.5765C18.9598 50.5805 17.5567 54.9238 16.6687 57.8038L19.739 56.2687C20.147 56.0766 20.4 55.6559 20.4 55.1999C20.4 55.1639 20.4229 51.8884 21.4429 45.4804ZM18.0961 45.996C16.0321 46.308 14.4358 46.571 13.6078 46.739C11.6998 52.007 10.464 56.0273 9.89997 57.9233L13.8726 58.7155C14.6406 56.1595 16.0921 51.552 18.0961 45.996Z" fill="#DA412E"/>
</svg>
