<svg width="15" height="14" viewBox="0 0 15 14" fill="none" xmlns="http://www.w3.org/2000/svg">
<path d="M8.52625 3.23828H10.4444V13.788H8.52625V3.23828ZM12.3625 0.361099H14.2806V13.788H12.3625V0.361099ZM4.69001 6.11547H6.60813V13.788H4.69001V6.11547ZM0.85376 8.99265H2.77188V13.788H0.85376V8.99265Z" fill="#8665FE"/>
<path d="M14.2806 0.361099H12.3625V13.788H14.2806V0.361099Z" fill="#8665FE"/>
<path d="M14.2806 0.361099H12.3625V13.788H14.2806V0.361099Z" fill="#59585F"/>
<path d="M8.52625 3.23828H10.4444V13.788H8.52625V3.23828ZM12.3625 0.361099H14.2806V13.788H12.3625V0.361099ZM4.69001 6.11547H6.60813V13.788H4.69001V6.11547ZM0.85376 8.99265H2.77188V13.788H0.85376V8.99265Z" fill="#8665FE"/>
<path d="M14.2806 0.361099H12.3625V13.788H14.2806V0.361099Z" fill="#8665FE"/>
<path d="M14.2806 0.361099H12.3625V13.788H14.2806V0.361099Z" fill="#8B8A8E"/>
<path d="M10.4444 3.23828H8.52625V13.788H10.4444V3.23828Z" fill="#8B8A8E"/>
</svg>
