<svg width="81" height="98" viewBox="0 0 81 98" fill="none" xmlns="http://www.w3.org/2000/svg">
<mask id="mask0_106_96" style="mask-type:luminance" maskUnits="userSpaceOnUse" x="50" y="15" width="31" height="53">
<path d="M50.5023 15.2305H80.8602V67.365H50.5023V15.2305Z" fill="white"/>
</mask>
<g mask="url(#mask0_106_96)">
<path d="M50.6119 15.6326V65.4582L54.5767 67.0467V20.7467L76.8598 30.3158L77.2354 64.1778L80.8245 62.5511V28.6509L50.6119 15.6326Z" fill="#737373"/>
</g>
<mask id="mask1_106_96" style="mask-type:luminance" maskUnits="userSpaceOnUse" x="6" y="72" width="45" height="26">
<path d="M6.45703 72.0898H50.6777V97.7524H6.45703V72.0898Z" fill="white"/>
</mask>
<g mask="url(#mask1_106_96)">
<path d="M46.4472 89.2296L34.5941 94.3056V84.1536L31.5479 82.8375L31.5068 93.2593L14.0631 85.821L14.4798 85.6657L26.1245 80.5108L24.4547 79.7751L22.242 78.8078L10.5151 83.9601L10.1833 84.0772V73.6554L7.05212 72.2986V85.7039L34.5941 97.7524V97.7142L38.5588 96.0086L50.3269 90.9352L46.4883 89.2678L46.4472 89.2296Z" fill="#737373"/>
</g>
<path d="M81 61.4109L63.3068 69.3532L33.0915 57.0706V0L0 14.2199V69.2361L20.1143 77.8786L24.4546 79.7369L46.4882 89.2295L50.3268 90.9351L81 77.7233V61.4109ZM4.34036 16.0808L28.7539 5.58003V57.1495L4.34036 66.4487V16.0808ZM50.8286 87.4094L28.795 77.9167L24.4546 76.0559L7.46882 68.7346L30.8404 59.8224L58.5058 71.2905L50.7875 74.9714V87.4094H50.8286ZM54.2093 85.8591V77.4891L63.474 73.1895L67.521 74.7398L73.9891 77.3745L54.2093 85.8591ZM77.537 75.2031L68.1462 71.3694L77.537 67.2225V75.2031Z" fill="#03989E"/>
</svg>
