<?xml version="1.0" encoding="utf-8"?>
<!-- Uploaded to: SVG Repo, www.svgrepo.com, Generator: SVG Repo Mixer Tools -->
<svg fill="#fff" width="60px" height="60px" viewBox="0 0 32 32" version="1.1" xmlns="http://www.w3.org/2000/svg">
<title>sketchup</title>
<path d="M23.064 23.335l-2.947 1.691v-1.586l2.293-1.312c1.483-1.070 2.46-2.763 2.545-4.687l0-0.013-0.009-7.129-6.256-3.6c-0.712-0.395-1.561-0.627-2.464-0.627-0.069 0-0.138 0.001-0.206 0.004l0.010-0c-0.064-0.003-0.14-0.004-0.215-0.004-0.885 0-1.72 0.215-2.455 0.594l0.030-0.014-2.197 1.263-1.387-0.801 3.035-1.736c0.873-0.418 1.898-0.661 2.98-0.661 0.070 0 0.14 0.001 0.209 0.003l-0.010-0c1.179 0.008 2.295 0.27 3.299 0.734l-0.049-0.021 7.064 4.081-0.009 7.78c-0.050 2.503-1.319 4.7-3.237 6.026l-0.025 0.016zM15.064 10.137c0.278-0.045 0.597-0.070 0.923-0.070 1.023 0 1.988 0.253 2.834 0.699l-0.033-0.016 2.713 1.562s0.004 1.371 0.004 3.419c-0.141 1.282-0.642 2.426-1.399 3.353l0.009-0.012 0.003-6.018zM29.786 7.536l-9.762-5.628c-1.116-0.571-2.435-0.905-3.832-0.905-0.064 0-0.128 0.001-0.192 0.002l0.009-0c-0.078-0.003-0.169-0.004-0.261-0.004-1.389 0-2.697 0.347-3.842 0.958l0.044-0.021-9.042 5.173 13.757 7.908v15.978l9.054-5.169c1.187-0.762 2.149-1.777 2.826-2.975l0.022-0.042c0.622-1.059 1.054-2.304 1.214-3.632l0.004-0.046zM2.214 12.285l9.643 5.533-0.007 1.65-5.486-3.147-3.453 1.962 8.932 5.148 0.006 1.587-9.57-5.505c0.265 1.586 0.874 2.995 1.748 4.199l-0.020-0.029c0.647 0.904 1.458 1.648 2.396 2.2l0.036 0.020 8.845 5.092v-15.184l-13.063-7.502z"></path>
</svg>