<svg width="60" height="60" viewBox="0 0 50 50" fill="none" xmlns="http://www.w3.org/2000/svg">
<path d="M37.7606 4.16675H12.2397C11.2041 4.16785 10.2112 4.57976 9.47883 5.31208C8.7465 6.04441 8.3346 7.03733 8.3335 8.073V33.5938C8.3335 35.748 10.0856 37.5001 12.2397 37.5001H22.9168V41.6668H14.5835V45.8334H35.4168V41.6668H27.0835V37.5001H37.7606C38.7962 37.499 39.7892 37.0871 40.5215 36.3548C41.2538 35.6224 41.6657 34.6295 41.6668 33.5938V8.073C41.6657 7.03733 41.2538 6.04441 40.5215 5.31208C39.7892 4.57976 38.7962 4.16785 37.7606 4.16675ZM37.5002 33.3334H12.5002V8.33342H37.5002V33.3334Z" fill="#FFA130"/>
<path d="M24.9998 29.1667C29.5957 29.1667 33.3332 25.4292 33.3332 20.8333C33.3332 16.2375 29.5957 12.5 24.9998 12.5C20.404 12.5 16.6665 16.2375 16.6665 20.8333C16.6665 25.4292 20.404 29.1667 24.9998 29.1667ZM24.9998 16.6667C27.2978 16.6667 29.1665 18.5354 29.1665 20.8333C29.1665 23.1312 27.2978 25 24.9998 25C22.7019 25 20.8332 23.1312 20.8332 20.8333C20.8332 18.5354 22.7019 16.6667 24.9998 16.6667Z" fill="#FFA130"/>
</svg>