<svg width="54" height="59" viewBox="0 0 54 59" fill="none" xmlns="http://www.w3.org/2000/svg">
<path d="M20.573 0C20.1359 0 19.725 0.22718 19.4807 0.591768C7.92377 18.4817 0.350858 51.142 0.0294742 52.5249C-0.0476578 52.8644 0.0299764 53.2183 0.222807 53.4948L2.79388 57.2664C2.8453 57.3544 2.92263 57.4418 2.99977 57.5046C4.70953 51.8095 12.4103 27.7599 25.9084 6.87777C26.1527 6.51318 26.5636 6.286 27.0006 6.286C27.4377 6.286 27.8486 6.51318 28.0928 6.87777C31.3067 11.8563 34.4437 17.4003 37.4004 23.3343C37.709 23.9629 37.4529 24.717 36.8229 25.0188L13.4648 36.309C13.2077 36.9125 12.9634 37.5155 12.7191 38.1064C17.1414 36.7109 26.5506 33.982 40.0744 31.3293C40.6658 31.2162 41.2563 31.5303 41.5006 32.0709C46.7841 44.0017 49.9728 54.0602 51.0141 57.4923C51.0269 57.4923 51.0414 57.4804 51.0542 57.4678L53.6253 54.9534C53.9338 54.6517 54.0618 54.2093 53.9718 53.7944C53.6504 52.3612 46.0775 18.4817 34.5205 0.591768C34.2763 0.22718 33.8654 0 33.4283 0H20.573ZM27.0006 9.92009C22.2313 17.5513 18.2332 25.5093 15.0065 32.7633L20.932 29.8953C22.7575 25.8346 24.7895 21.6616 27.0006 17.6008C28.3504 20.0775 29.6237 22.5928 30.8321 25.1072L34.5331 23.322C32.1163 18.5573 29.5846 14.0563 27.0006 9.92009ZM39.5472 34.0082C23.9408 37.1135 14.1192 40.2561 11.4838 41.1487C11.1239 42.0288 10.8034 42.8825 10.482 43.7122C17.0254 42.6311 35.8329 40.0408 41.7592 39.2237C41.0779 37.539 40.3442 35.7935 39.5472 34.0082ZM42.7233 41.6374C41.772 41.7631 40.2804 41.9654 38.455 42.2169C41.2831 49.5589 43.288 55.8067 44.265 59L48.5459 58.17C47.7746 55.6557 45.8343 49.4823 42.7233 41.6374ZM36.3584 43.9136C37.2712 50.2499 37.2849 55.2665 37.2849 55.3168C37.2849 55.7945 37.5559 56.2353 37.993 56.4365L41.2821 58.0448C40.2537 54.7887 38.5696 49.7344 36.3584 43.9136ZM17.8337 45.134C17.6023 45.1717 17.3718 45.1969 17.1532 45.2346C15.1735 50.4772 13.6704 55.0275 12.7191 58.0448L16.0083 56.4365C16.4454 56.2353 16.7163 55.7945 16.7163 55.3168C16.7163 55.2791 16.7409 51.8474 17.8337 45.134ZM14.2482 45.6742C12.0371 46.001 10.327 46.2765 9.44 46.4526C7.396 51.9717 6.0721 56.1837 5.4679 58.17L9.72373 59C10.5465 56.3222 12.1014 51.495 14.2482 45.6742Z" fill="#FEFEFE"/>
</svg>
